# xmcd CD database file
#
# Track frame offsets:
#	150
#	34115
#	55277
#	79448
#	97029
#	110138
#	136120
#	162075
#
# Disc length: 2544 seconds
#
# Revision: 0
# Processed by: cddbd v1.5.2PL0 Copyright (c) Steve Scherf et al.
# Submitted via: CDex 1.51
#
DISCID=6909ee08
DTITLE=Lämmerhirt, Werner - With Friends - For Friends
DYEAR=1975
DGENRE=Blues
TTITLE0=Long Way Back home
TTITLE1=Nobody Wants You When You're Down And Out
TTITLE2=If I Were A Carpenter
TTITLE3=Alberta
TTITLE4=Whispering - Mr. Sandman
TTITLE5=Lincoln Duncan
TTITLE6=St. James Infirmery
TTITLE7=All Along The Watchtower
EXTD=YEAR: 1975
EXTT0=
EXTT1=
EXTT2=
EXTT3=
EXTT4=
EXTT5=
EXTT6=
EXTT7=
PLAYORDER=
